# Blender 3.4.1
# www.blender.org
mtllib window1.1.mtl
o frame
v 0.030000 0.710000 -0.600000
v 0.030000 -0.710000 -0.600000
v 0.030000 0.710000 0.600000
v 0.030000 -0.710000 0.600000
v -0.030000 0.710000 -0.600000
v -0.030000 -0.710000 -0.600000
v -0.030000 0.710000 0.600000
v -0.030000 -0.710000 0.600000
v -0.030000 0.610000 -0.500000
v -0.030000 0.610000 0.500000
v -0.030000 -0.610000 0.500000
v -0.030000 -0.610000 -0.500000
v 0.030000 0.610000 0.500000
v 0.030000 0.610000 -0.500000
v 0.030000 -0.610000 0.500000
v 0.030000 -0.610000 -0.500000
v -0.020000 -0.610000 0.500000
v -0.020000 0.610000 0.500000
v -0.020000 -0.610000 -0.500000
v -0.020000 0.610000 -0.500000
v 0.020000 -0.610000 0.500000
v 0.020000 0.610000 0.500000
v 0.020000 -0.610000 -0.500000
v 0.020000 0.610000 -0.500000
vn -0.0000 1.0000 -0.0000
vn -0.0000 -0.0000 1.0000
vn -1.0000 -0.0000 -0.0000
vn -0.0000 -1.0000 -0.0000
vn 1.0000 -0.0000 -0.0000
vn -0.0000 -0.0000 -1.0000
vt 0.625000 0.500000
vt 0.375000 0.500000
vt 0.625000 0.750000
vt 0.375000 0.750000
vt 0.875000 0.500000
vt 0.625000 0.250000
vt 0.125000 0.500000
vt 0.375000 0.250000
vt 0.875000 0.750000
vt 0.625000 1.000000
vt 0.625000 0.000000
vt 0.375000 1.000000
vt 0.375000 0.000000
vt 0.125000 0.750000
vt 0.607394 0.229167
vt 0.000000 0.000000
vt 0.607394 0.020833
vt 0.000000 0.000000
vt 0.392606 0.020833
vt 0.000000 0.000000
vt 0.392606 0.229167
vt 0.000000 0.000000
vt 0.607394 0.729167
vt 0.000000 0.000000
vt 0.607394 0.520833
vt 0.000000 0.000000
vt 0.392606 0.729167
vt 0.000000 0.000000
vt 0.392606 0.520833
vt 0.000000 0.000000
vt 0.000000 0.000000
vt 0.000000 0.000000
vt 0.000000 0.000000
vt 0.000000 0.000000
vt 0.000000 0.000000
vt 0.000000 0.000000
vt 0.000000 0.000000
vt 0.000000 0.000000
s 0
usemtl frame
f 5/5/1 3/3/1 1/1/1
f 3/3/2 8/12/2 4/4/2
f 7/11/3 5/6/3 10/17/3
f 8/13/3 12/21/3 6/8/3
f 2/2/4 8/14/4 6/7/4
f 1/1/5 3/3/5 14/25/5
f 4/4/5 16/29/5 15/27/5
f 5/6/6 2/2/6 6/8/6
f 9/16/2 16/30/2 14/26/2
f 13/24/6 11/20/6 10/18/6
f 11/20/1 16/30/1 12/22/1
f 14/26/4 10/18/4 9/16/4
f 5/5/1 7/9/1 3/3/1
f 3/3/2 7/10/2 8/12/2
f 11/19/3 8/13/3 7/11/3
f 5/6/3 6/8/3 12/21/3
f 5/6/3 12/21/3 9/15/3
f 10/17/3 11/19/3 7/11/3
f 5/6/3 9/15/3 10/17/3
f 8/13/3 11/19/3 12/21/3
f 2/2/4 4/4/4 8/14/4
f 14/25/5 16/29/5 2/2/5
f 3/3/5 4/4/5 15/27/5
f 3/3/5 15/27/5 13/23/5
f 14/25/5 2/2/5 1/1/5
f 3/3/5 13/23/5 14/25/5
f 4/4/5 2/2/5 16/29/5
f 5/6/6 1/1/6 2/2/6
f 9/16/2 12/22/2 16/30/2
f 13/24/6 15/28/6 11/20/6
f 11/20/1 15/28/1 16/30/1
f 14/26/4 13/24/4 10/18/4
usemtl window
f 18/32/3 19/33/3 17/31/3
f 20/34/6 23/37/6 19/33/6
f 24/38/5 21/35/5 23/37/5
f 22/36/2 17/31/2 21/35/2
f 23/37/4 17/31/4 19/33/4
f 20/34/1 22/36/1 24/38/1
f 18/32/3 20/34/3 19/33/3
f 20/34/6 24/38/6 23/37/6
f 24/38/5 22/36/5 21/35/5
f 22/36/2 18/32/2 17/31/2
f 23/37/4 21/35/4 17/31/4
f 20/34/1 18/32/1 22/36/1
