# Blender 3.4.1
# www.blender.org
mtllib window2.1.mtl
g frame_Mesh
v 0.030000 0.710000 -0.362500
v 0.030000 -0.710000 -0.362500
v 0.030000 0.710000 0.362500
v 0.030000 -0.710000 0.362500
v -0.030000 0.710000 -0.362500
v -0.030000 -0.710000 -0.362500
v -0.030000 0.710000 0.362500
v -0.030000 -0.710000 0.362500
v -0.030000 0.610000 -0.262500
v -0.030000 0.610000 0.262500
v -0.030000 -0.610000 0.262500
v -0.030000 -0.610000 -0.262500
v 0.030000 0.610000 0.262500
v 0.030000 0.610000 -0.262500
v 0.030000 -0.610000 0.262500
v 0.030000 -0.610000 -0.262500
vn -0.0000 1.0000 -0.0000
vn -0.0000 -0.0000 1.0000
vn -1.0000 -0.0000 -0.0000
vn -0.0000 -1.0000 -0.0000
vn 1.0000 -0.0000 -0.0000
vn -0.0000 -0.0000 -1.0000
vt 0.625000 0.500000
vt 0.375000 0.500000
vt 0.625000 0.750000
vt 0.375000 0.750000
vt 0.875000 0.500000
vt 0.625000 0.250000
vt 0.125000 0.500000
vt 0.375000 0.250000
vt 0.875000 0.750000
vt 0.625000 1.000000
vt 0.625000 0.000000
vt 0.375000 1.000000
vt 0.375000 0.000000
vt 0.125000 0.750000
vt 0.000000 0.000000
vt 0.607394 0.215517
vt 0.607394 0.034483
vt 0.000000 0.000000
vt 0.392606 0.034483
vt 0.000000 0.000000
vt 0.392606 0.215517
vt 0.000000 0.000000
vt 0.607394 0.715517
vt 0.000000 0.000000
vt 0.607394 0.534483
vt 0.000000 0.000000
vt 0.392606 0.715517
vt 0.000000 0.000000
vt 0.392606 0.534483
vt 0.000000 0.000000
s 0
usemtl frame
f 5/5/1 3/3/1 1/1/1
f 3/3/2 8/12/2 4/4/2
f 7/11/3 5/6/3 10/17/3
f 8/13/3 12/21/3 6/8/3
f 2/2/4 8/14/4 6/7/4
f 1/1/5 3/3/5 14/25/5
f 4/4/5 16/29/5 15/27/5
f 5/6/6 2/2/6 6/8/6
f 12/22/2 14/26/2 9/15/2
f 11/20/6 13/24/6 15/28/6
f 11/20/1 16/30/1 12/22/1
f 14/26/4 10/18/4 9/15/4
f 5/5/1 7/9/1 3/3/1
f 3/3/2 7/10/2 8/12/2
f 11/19/3 8/13/3 7/11/3
f 5/6/3 6/8/3 12/21/3
f 5/6/3 12/21/3 9/16/3
f 10/17/3 11/19/3 7/11/3
f 5/6/3 9/16/3 10/17/3
f 8/13/3 11/19/3 12/21/3
f 2/2/4 4/4/4 8/14/4
f 14/25/5 16/29/5 2/2/5
f 3/3/5 4/4/5 15/27/5
f 3/3/5 15/27/5 13/23/5
f 14/25/5 2/2/5 1/1/5
f 3/3/5 13/23/5 14/25/5
f 4/4/5 2/2/5 16/29/5
f 5/6/6 1/1/6 2/2/6
f 12/22/2 16/30/2 14/26/2
f 11/20/6 10/18/6 13/24/6
f 11/20/1 15/28/1 16/30/1
f 14/26/4 13/24/4 10/18/4
g window_Mesh
v -0.020000 -0.610000 0.276000
v -0.020000 0.610000 0.276000
v -0.020000 -0.610000 -0.276000
v -0.020000 0.610000 -0.276000
v 0.020000 -0.610000 0.276000
v 0.020000 0.610000 0.276000
v 0.020000 -0.610000 -0.276000
v 0.020000 0.610000 -0.276000
vn -1.0000 -0.0000 -0.0000
vn -0.0000 -0.0000 -1.0000
vn 1.0000 -0.0000 -0.0000
vn -0.0000 -0.0000 1.0000
vn -0.0000 -1.0000 -0.0000
vn -0.0000 1.0000 -0.0000
vt 0.375000 0.000000
vt 0.375000 1.000000
vt 0.125000 0.750000
vt 0.625000 0.000000
vt 0.625000 1.000000
vt 0.875000 0.750000
vt 0.125000 0.500000
vt 0.375000 0.250000
vt 0.625000 0.250000
vt 0.875000 0.500000
vt 0.375000 0.750000
vt 0.625000 0.750000
vt 0.375000 0.500000
vt 0.625000 0.500000
s 0
usemtl window
f 18/34/7 19/38/7 17/31/7
f 20/39/8 23/43/8 19/38/8
f 24/44/9 21/41/9 23/43/9
f 22/42/10 17/32/10 21/41/10
f 23/43/11 17/33/11 19/37/11
f 20/40/12 22/42/12 24/44/12
f 18/34/7 20/39/7 19/38/7
f 20/39/8 24/44/8 23/43/8
f 24/44/9 22/42/9 21/41/9
f 22/42/10 18/35/10 17/32/10
f 23/43/11 21/41/11 17/33/11
f 20/40/12 18/36/12 22/42/12
g window.001_Mesh
v -0.020000 -0.610000 1.001000
v -0.020000 0.610000 1.001000
v -0.020000 -0.610000 0.449000
v -0.020000 0.610000 0.449000
v 0.020000 -0.610000 1.001000
v 0.020000 0.610000 1.001000
v 0.020000 -0.610000 0.449000
v 0.020000 0.610000 0.449000
vn -1.0000 -0.0000 -0.0000
vn -0.0000 -0.0000 -1.0000
vn 1.0000 -0.0000 -0.0000
vn -0.0000 -0.0000 1.0000
vn -0.0000 -1.0000 -0.0000
vn -0.0000 1.0000 -0.0000
vt 0.375000 0.000000
vt 0.375000 1.000000
vt 0.125000 0.750000
vt 0.625000 0.000000
vt 0.625000 1.000000
vt 0.875000 0.750000
vt 0.125000 0.500000
vt 0.375000 0.250000
vt 0.625000 0.250000
vt 0.875000 0.500000
vt 0.375000 0.750000
vt 0.625000 0.750000
vt 0.375000 0.500000
vt 0.625000 0.500000
s 0
usemtl window.001
f 26/48/13 27/52/13 25/45/13
f 28/53/14 31/57/14 27/52/14
f 32/58/15 29/55/15 31/57/15
f 30/56/16 25/46/16 29/55/16
f 31/57/17 25/47/17 27/51/17
f 28/54/18 30/56/18 32/58/18
f 26/48/13 28/53/13 27/52/13
f 28/53/14 32/58/14 31/57/14
f 32/58/15 30/56/15 29/55/15
f 30/56/16 26/49/16 25/46/16
f 31/57/17 29/55/17 25/47/17
f 28/54/18 26/50/18 30/56/18
g frame.001_Mesh
v 0.030000 0.710000 0.362500
v 0.030000 -0.710000 0.362500
v 0.030000 0.710000 1.087500
v 0.030000 -0.710000 1.087500
v -0.030000 0.710000 0.362500
v -0.030000 -0.710000 0.362500
v -0.030000 0.710000 1.087500
v -0.030000 -0.710000 1.087500
v -0.030000 0.610000 0.462500
v -0.030000 0.610000 0.987500
v -0.030000 -0.610000 0.987500
v -0.030000 -0.610000 0.462500
v 0.030000 0.610000 0.987500
v 0.030000 0.610000 0.462500
v 0.030000 -0.610000 0.987500
v 0.030000 -0.610000 0.462500
vn -0.0000 1.0000 -0.0000
vn -0.0000 -0.0000 1.0000
vn -1.0000 -0.0000 -0.0000
vn -0.0000 -1.0000 -0.0000
vn 1.0000 -0.0000 -0.0000
vn -0.0000 -0.0000 -1.0000
vt 0.625000 0.500000
vt 0.375000 0.500000
vt 0.625000 0.750000
vt 0.375000 0.750000
vt 0.875000 0.500000
vt 0.625000 0.250000
vt 0.125000 0.500000
vt 0.375000 0.250000
vt 0.875000 0.750000
vt 0.625000 1.000000
vt 0.625000 0.000000
vt 0.375000 1.000000
vt 0.375000 0.000000
vt 0.125000 0.750000
vt 0.000000 0.000000
vt 0.607394 0.215517
vt 0.607394 0.034483
vt 0.000000 0.000000
vt 0.392606 0.034483
vt 0.000000 0.000000
vt 0.392606 0.215517
vt 0.000000 0.000000
vt 0.607394 0.715517
vt 0.000000 0.000000
vt 0.607394 0.534483
vt 0.000000 0.000000
vt 0.392606 0.715517
vt 0.000000 0.000000
vt 0.392606 0.534483
vt 0.000000 0.000000
s 0
usemtl frame.001
f 37/63/19 35/61/19 33/59/19
f 35/61/20 40/70/20 36/62/20
f 39/69/21 37/64/21 42/75/21
f 40/71/21 44/79/21 38/66/21
f 34/60/22 40/72/22 38/65/22
f 33/59/23 35/61/23 46/83/23
f 36/62/23 48/87/23 47/85/23
f 37/64/24 34/60/24 38/66/24
f 44/80/20 46/84/20 41/73/20
f 43/78/24 45/82/24 47/86/24
f 43/78/19 48/88/19 44/80/19
f 46/84/22 42/76/22 41/73/22
f 37/63/19 39/67/19 35/61/19
f 35/61/20 39/68/20 40/70/20
f 43/77/21 40/71/21 39/69/21
f 37/64/21 38/66/21 44/79/21
f 37/64/21 44/79/21 41/74/21
f 42/75/21 43/77/21 39/69/21
f 37/64/21 41/74/21 42/75/21
f 40/71/21 43/77/21 44/79/21
f 34/60/22 36/62/22 40/72/22
f 46/83/23 48/87/23 34/60/23
f 35/61/23 36/62/23 47/85/23
f 35/61/23 47/85/23 45/81/23
f 46/83/23 34/60/23 33/59/23
f 35/61/23 45/81/23 46/83/23
f 36/62/23 34/60/23 48/87/23
f 37/64/24 33/59/24 34/60/24
f 44/80/20 48/88/20 46/84/20
f 43/78/24 42/76/24 45/82/24
f 43/78/19 47/86/19 48/88/19
f 46/84/22 45/82/22 42/76/22
g Куб.002_Mesh
v 0.039136 -0.010674 0.298955
v 0.039136 0.014326 0.298955
v 0.039136 -0.010674 0.323955
v 0.039136 0.014326 0.323955
v 0.079136 -0.075446 0.323955
v 0.079136 -0.080674 0.318727
v 0.079136 -0.078060 0.323254
v 0.079136 -0.079974 0.321341
v 0.079136 -0.080674 0.304183
v 0.079136 -0.075446 0.298955
v 0.079136 -0.079974 0.301569
v 0.079136 -0.078060 0.299655
v 0.064045 -0.080674 0.318727
v 0.064045 -0.075446 0.323955
v 0.064045 -0.079974 0.321341
v 0.064045 -0.078060 0.323254
v 0.064045 -0.075446 0.298955
v 0.064045 -0.080674 0.304183
v 0.064045 -0.078060 0.299655
v 0.064045 -0.079974 0.301569
v 0.064045 -0.012818 0.298955
v 0.060615 -0.010674 0.298955
v 0.063586 -0.011746 0.298955
v 0.062330 -0.010961 0.298955
v 0.060615 -0.010674 0.323955
v 0.064045 -0.012818 0.323955
v 0.062330 -0.010961 0.323955
v 0.063586 -0.011746 0.323955
v 0.073136 0.014326 0.298955
v 0.079136 0.010576 0.298955
v 0.076136 0.013823 0.298955
v 0.078332 0.012451 0.298955
v 0.079136 0.010576 0.323955
v 0.073136 0.014326 0.323955
v 0.078332 0.012451 0.323955
v 0.076136 0.013823 0.323955
v 0.029848 -0.045319 0.296480
v 0.029848 -0.050000 0.297885
v 0.029848 -0.048629 0.296892
v 0.029848 0.050000 0.297885
v 0.029848 0.045319 0.296480
v 0.029848 0.048629 0.296892
v 0.039848 -0.050000 0.297885
v 0.039848 -0.045319 0.296480
v 0.039848 -0.048629 0.296892
v 0.039848 0.045319 0.296480
v 0.039848 0.050000 0.297885
v 0.039848 0.048629 0.296892
v 0.029848 -0.050000 0.325076
v 0.029848 -0.045319 0.326480
v 0.029848 -0.048629 0.326069
v 0.029848 0.045319 0.326480
v 0.029848 0.050000 0.325076
v 0.029848 0.048629 0.326069
v 0.039848 -0.045319 0.326480
v 0.039848 -0.050000 0.325076
v 0.039848 -0.048629 0.326069
v 0.039848 0.050000 0.325076
v 0.039848 0.045319 0.326480
v 0.039848 0.048629 0.326069
vn -1.0000 -0.0000 -0.0000
vn -0.0000 1.0000 -0.0000
vn -0.0000 -1.0000 -0.0000
vn -0.0000 -0.9659 0.2588
vn -0.0000 -0.7071 0.7071
vn -0.0000 -0.2588 0.9659
vn -0.0000 -0.9659 -0.2588
vn -0.0000 -0.7071 -0.7071
vn -0.0000 -0.2588 -0.9659
vn -0.0000 -0.0000 1.0000
vn -0.1652 -0.9863 -0.0000
vn -0.5300 -0.8480 -0.0000
vn -0.9191 -0.3940 -0.0000
vn 1.0000 -0.0000 -0.0000
vn 0.1652 0.9863 -0.0000
vn 0.5300 0.8480 -0.0000
vn 0.9191 0.3940 -0.0000
vn -0.0000 -0.0000 -1.0000
vn -0.0000 -0.5866 -0.8099
vn -0.0000 -0.1233 -0.9924
vn -0.0000 0.5866 -0.8099
vn -0.0000 0.1233 -0.9924
vn -0.0000 -0.5866 0.8099
vn -0.0000 -0.1233 0.9924
vn -0.0000 0.5866 0.8099
vn -0.0000 0.1233 0.9924
vt 0.125000 0.750000
vt 0.375000 1.000000
vt 0.625000 1.000000
vt 0.375000 0.750000
vt 0.625000 0.750000
vt 0.375000 0.500000
vt 0.322719 0.500000
vt 0.375000 0.500000
vt 0.348860 0.500000
vt 0.177281 0.500000
vt 0.375000 0.250000
vt 0.151140 0.500000
vt 0.375000 0.250000
vt 0.125000 0.500000
vt 0.322719 0.594315
vt 0.375000 0.594315
vt 0.348860 0.594315
vt 0.372665 0.594315
vt 0.375000 0.155685
vt 0.125000 0.594315
vt 0.177281 0.594315
vt 0.132004 0.594315
vt 0.125000 0.594315
vt 0.375000 0.155685
vt 0.151140 0.594315
vt 0.125000 0.594315
vt 0.125000 0.615752
vt 0.159424 0.650176
vt 0.125000 0.594315
vt 0.107254 0.599530
vt 0.125000 0.605034
vt 0.121179 0.620085
vt 0.375000 0.615752
vt 0.375000 0.594315
vt 0.373036 0.605034
vt 0.372967 0.595272
vt 0.837500 0.575000
vt 0.854114 0.489557
vt 0.854644 0.537131
vt 0.862160 0.498225
vt 0.614557 0.500000
vt 0.625000 0.537500
vt 0.619333 0.501675
vt 0.624102 0.518750
vt 0.386703 1.000000
vt 0.386703 0.000000
vt 0.375000 0.988297
vt 0.136703 0.750000
vt 0.378428 0.996572
vt 0.125000 0.750000
vt 0.375000 0.000000
vt 0.625000 0.988297
vt 0.863297 0.750000
vt 0.613297 1.000000
vt 0.613297 0.000000
vt 0.625000 0.000000
vt 0.621572 0.996572
vt 0.875000 0.750000
vt 0.136703 0.500000
vt 0.375000 0.261703
vt 0.386703 0.250000
vt 0.375000 0.250000
vt 0.378428 0.253428
vt 0.125000 0.500000
vt 0.613297 0.250000
vt 0.625000 0.261703
vt 0.863297 0.500000
vt 0.621572 0.253428
vt 0.875000 0.500000
vt 0.625000 0.250000
vt 0.375000 0.761703
vt 0.363297 0.750000
vt 0.386703 0.750000
vt 0.378428 0.753428
vt 0.375000 0.750000
vt 0.613297 0.750000
vt 0.625000 0.761703
vt 0.636703 0.750000
vt 0.621572 0.753428
vt 0.625000 0.750000
vt 0.386703 0.500000
vt 0.375000 0.488297
vt 0.363297 0.500000
vt 0.378428 0.496572
vt 0.375000 0.500000
vt 0.636703 0.500000
vt 0.625000 0.488297
vt 0.613297 0.500000
vt 0.621572 0.496572
vt 0.625000 0.500000
s 0
usemtl frame
f 52/93/25 49/90/25 51/92/25
f 67/110/25 63/105/25 62/104/25
f 50/91/26 82/130/26 77/125/26
f 54/95/27 66/109/27 57/98/27
f 54/95/28 63/105/28 61/103/28
f 56/97/29 64/106/29 63/105/29
f 55/96/30 62/104/30 64/106/30
f 66/109/31 59/100/31 57/98/31
f 68/113/32 60/102/32 59/100/32
f 67/112/33 58/99/33 60/101/33
f 73/121/27 49/89/27 70/115/27
f 76/124/34 81/129/34 52/93/34
f 70/115/35 75/123/35 73/121/35
f 72/119/36 76/124/36 75/123/36
f 71/117/37 74/122/37 76/124/37
f 55/96/38 59/100/38 58/99/38
f 82/130/39 79/127/39 77/125/39
f 84/132/40 80/128/40 79/127/40
f 83/131/41 78/126/41 80/128/41
f 71/118/42 50/91/42 78/126/42
f 100/164/25 90/145/25 86/135/25
f 107/176/34 98/161/34 103/169/34
f 95/155/26 101/166/26 106/174/26
f 89/143/42 92/149/42 85/134/42
f 94/153/38 108/177/38 104/170/38
f 86/136/43 93/152/43 91/147/43
f 87/139/44 92/149/44 93/150/44
f 95/155/45 90/146/45 88/141/45
f 96/158/46 89/143/46 90/144/46
f 104/171/47 99/163/47 97/160/47
f 105/173/48 98/161/48 99/163/48
f 101/166/49 108/178/49 106/174/49
f 102/168/50 107/176/50 108/178/50
f 104/171/27 86/136/27 91/147/27
f 52/93/25 50/91/25 49/90/25
f 62/104/25 74/122/25 69/114/25
f 69/114/25 65/108/25 67/110/25
f 67/110/25 68/113/25 66/109/25
f 66/109/25 61/103/25 63/105/25
f 63/105/25 64/106/25 62/104/25
f 62/104/25 69/114/25 67/110/25
f 67/110/25 66/109/25 63/105/25
f 50/91/26 52/93/26 82/130/26
f 54/95/27 61/103/27 66/109/27
f 54/95/28 56/97/28 63/105/28
f 56/97/29 55/96/29 64/106/29
f 55/96/30 53/94/30 62/104/30
f 66/109/31 68/113/31 59/100/31
f 68/113/32 67/111/32 60/102/32
f 67/112/33 65/107/33 58/99/33
f 73/121/27 51/92/27 49/89/27
f 52/93/34 51/92/34 73/121/34
f 52/93/34 73/121/34 75/123/34
f 84/132/34 82/130/34 52/93/34
f 81/129/34 83/131/34 84/132/34
f 62/104/34 53/94/34 81/129/34
f 74/122/34 62/104/34 81/129/34
f 81/129/34 84/132/34 52/93/34
f 52/93/34 75/123/34 76/124/34
f 76/124/34 74/122/34 81/129/34
f 70/115/35 72/119/35 75/123/35
f 72/119/36 71/117/36 76/124/36
f 71/117/37 69/114/37 74/122/37
f 58/99/38 78/126/38 81/129/38
f 81/129/38 53/94/38 55/96/38
f 55/96/38 56/97/38 54/95/38
f 54/95/38 57/98/38 59/100/38
f 59/100/38 60/102/38 58/99/38
f 58/99/38 81/129/38 55/96/38
f 55/96/38 54/95/38 59/100/38
f 82/130/39 84/132/39 79/127/39
f 84/132/40 83/131/40 80/128/40
f 83/131/41 81/129/41 78/126/41
f 70/116/42 49/90/42 50/91/42
f 50/91/42 77/125/42 79/127/42
f 79/127/42 80/128/42 78/126/42
f 78/126/42 58/99/42 65/108/42
f 78/126/42 65/108/42 69/114/42
f 50/91/42 79/127/42 78/126/42
f 72/120/42 70/116/42 50/91/42
f 78/126/42 69/114/42 71/118/42
f 71/118/42 72/120/42 50/91/42
f 86/135/25 97/159/25 99/162/25
f 99/162/25 98/161/25 100/164/25
f 100/164/25 102/167/25 101/165/25
f 101/165/25 88/140/25 90/145/25
f 90/145/25 89/142/25 85/133/25
f 85/133/25 87/137/25 86/135/25
f 86/135/25 99/162/25 100/164/25
f 100/164/25 101/165/25 90/145/25
f 90/145/25 85/133/25 86/135/25
f 107/176/34 100/164/34 98/161/34
f 95/155/26 88/141/26 101/166/26
f 89/143/42 94/153/42 92/149/42
f 104/170/38 91/148/38 93/151/38
f 93/151/38 92/149/38 94/153/38
f 94/153/38 96/156/38 95/154/38
f 95/154/38 106/175/38 108/177/38
f 108/177/38 107/176/38 103/169/38
f 103/169/38 105/172/38 104/170/38
f 104/170/38 93/151/38 94/153/38
f 94/153/38 95/154/38 108/177/38
f 108/177/38 103/169/38 104/170/38
f 86/136/43 87/138/43 93/152/43
f 87/139/44 85/134/44 92/149/44
f 95/155/45 96/157/45 90/146/45
f 96/158/46 94/153/46 89/143/46
f 104/171/47 105/173/47 99/163/47
f 105/173/48 103/169/48 98/161/48
f 101/166/49 102/168/49 108/178/49
f 102/168/50 100/164/50 107/176/50
f 104/171/27 97/160/27 86/136/27
g Куб.003_Mesh
v 0.039136 -0.010674 0.401050
v 0.039136 0.014326 0.401050
v 0.039136 -0.010674 0.426050
v 0.039136 0.014326 0.426050
v 0.079136 -0.075446 0.426050
v 0.079136 -0.080674 0.420822
v 0.079136 -0.078060 0.425350
v 0.079136 -0.079974 0.423436
v 0.079136 -0.080674 0.406278
v 0.079136 -0.075446 0.401050
v 0.079136 -0.079974 0.403664
v 0.079136 -0.078060 0.401751
v 0.064045 -0.080674 0.420822
v 0.064045 -0.075446 0.426050
v 0.064045 -0.079974 0.423436
v 0.064045 -0.078060 0.425350
v 0.064045 -0.075446 0.401050
v 0.064045 -0.080674 0.406278
v 0.064045 -0.078060 0.401751
v 0.064045 -0.079974 0.403664
v 0.064045 -0.012818 0.401050
v 0.060615 -0.010674 0.401050
v 0.063586 -0.011746 0.401050
v 0.062330 -0.010962 0.401050
v 0.060615 -0.010674 0.426050
v 0.064045 -0.012818 0.426050
v 0.062330 -0.010962 0.426050
v 0.063586 -0.011746 0.426050
v 0.073136 0.014326 0.401050
v 0.079136 0.010576 0.401050
v 0.076136 0.013823 0.401050
v 0.078332 0.012451 0.401050
v 0.079136 0.010576 0.426050
v 0.073136 0.014326 0.426050
v 0.078332 0.012451 0.426050
v 0.076136 0.013823 0.426050
v 0.029848 -0.045319 0.398576
v 0.029848 -0.050000 0.399980
v 0.029848 -0.048629 0.398987
v 0.029848 0.050000 0.399980
v 0.029848 0.045319 0.398576
v 0.029848 0.048629 0.398987
v 0.039848 -0.050000 0.399980
v 0.039848 -0.045319 0.398576
v 0.039848 -0.048629 0.398987
v 0.039848 0.045319 0.398576
v 0.039848 0.050000 0.399980
v 0.039848 0.048629 0.398987
v 0.029848 -0.050000 0.427171
v 0.029848 -0.045319 0.428576
v 0.029848 -0.048629 0.428164
v 0.029848 0.045319 0.428576
v 0.029848 0.050000 0.427171
v 0.029848 0.048629 0.428164
v 0.039848 -0.045319 0.428576
v 0.039848 -0.050000 0.427171
v 0.039848 -0.048629 0.428164
v 0.039848 0.050000 0.427171
v 0.039848 0.045319 0.428576
v 0.039848 0.048629 0.428164
vn -1.0000 -0.0000 -0.0000
vn -0.0000 1.0000 -0.0000
vn -0.0000 -1.0000 -0.0000
vn -0.0000 -0.9659 0.2588
vn -0.0000 -0.7071 0.7071
vn -0.0000 -0.2588 0.9659
vn -0.0000 -0.9659 -0.2588
vn -0.0000 -0.7071 -0.7071
vn -0.0000 -0.2588 -0.9659
vn -0.0000 -0.0000 1.0000
vn -0.1652 -0.9863 -0.0000
vn -0.5300 -0.8480 -0.0000
vn -0.9191 -0.3940 -0.0000
vn 1.0000 -0.0000 -0.0000
vn 0.1652 0.9863 -0.0000
vn 0.5300 0.8480 -0.0000
vn 0.9191 0.3940 -0.0000
vn -0.0000 -0.0000 -1.0000
vn -0.0000 -0.5866 -0.8099
vn -0.0000 -0.1233 -0.9924
vn -0.0000 0.5866 -0.8099
vn -0.0000 0.1233 -0.9924
vn -0.0000 -0.5866 0.8099
vn -0.0000 -0.1233 0.9924
vn -0.0000 0.5866 0.8099
vn -0.0000 0.1233 0.9924
vt 0.125000 0.750000
vt 0.375000 1.000000
vt 0.625000 1.000000
vt 0.375000 0.750000
vt 0.625000 0.750000
vt 0.375000 0.500000
vt 0.322719 0.500000
vt 0.375000 0.500000
vt 0.348860 0.500000
vt 0.177281 0.500000
vt 0.375000 0.250000
vt 0.151140 0.500000
vt 0.375000 0.250000
vt 0.125000 0.500000
vt 0.322719 0.594315
vt 0.375000 0.594315
vt 0.348860 0.594315
vt 0.372665 0.594315
vt 0.375000 0.155685
vt 0.125000 0.594315
vt 0.177281 0.594315
vt 0.132004 0.594315
vt 0.125000 0.594315
vt 0.375000 0.155685
vt 0.151140 0.594315
vt 0.125000 0.594315
vt 0.125000 0.615752
vt 0.159424 0.650176
vt 0.125000 0.594315
vt 0.107254 0.599530
vt 0.125000 0.605034
vt 0.121179 0.620085
vt 0.375000 0.615752
vt 0.375000 0.594315
vt 0.373036 0.605034
vt 0.372967 0.595272
vt 0.837500 0.575000
vt 0.854114 0.489557
vt 0.854644 0.537131
vt 0.862160 0.498225
vt 0.614557 0.500000
vt 0.625000 0.537500
vt 0.619333 0.501675
vt 0.624102 0.518750
vt 0.386703 1.000000
vt 0.386703 0.000000
vt 0.375000 0.988297
vt 0.136703 0.750000
vt 0.378428 0.996572
vt 0.125000 0.750000
vt 0.375000 0.000000
vt 0.625000 0.988297
vt 0.863297 0.750000
vt 0.613297 1.000000
vt 0.613297 0.000000
vt 0.625000 0.000000
vt 0.621572 0.996572
vt 0.875000 0.750000
vt 0.136703 0.500000
vt 0.375000 0.261703
vt 0.386703 0.250000
vt 0.375000 0.250000
vt 0.378428 0.253428
vt 0.125000 0.500000
vt 0.613297 0.250000
vt 0.625000 0.261703
vt 0.863297 0.500000
vt 0.621572 0.253428
vt 0.875000 0.500000
vt 0.625000 0.250000
vt 0.375000 0.761703
vt 0.363297 0.750000
vt 0.386703 0.750000
vt 0.378428 0.753428
vt 0.375000 0.750000
vt 0.613297 0.750000
vt 0.625000 0.761703
vt 0.636703 0.750000
vt 0.621572 0.753428
vt 0.625000 0.750000
vt 0.386703 0.500000
vt 0.375000 0.488297
vt 0.363297 0.500000
vt 0.378428 0.496572
vt 0.375000 0.500000
vt 0.636703 0.500000
vt 0.625000 0.488297
vt 0.613297 0.500000
vt 0.621572 0.496572
vt 0.625000 0.500000
s 0
usemtl frame
f 112/183/51 109/180/51 111/182/51
f 127/200/51 123/195/51 122/194/51
f 110/181/52 142/220/52 137/215/52
f 114/185/53 126/199/53 117/188/53
f 114/185/54 123/195/54 121/193/54
f 116/187/55 124/196/55 123/195/55
f 115/186/56 122/194/56 124/196/56
f 126/199/57 119/190/57 117/188/57
f 128/203/58 120/192/58 119/190/58
f 127/202/59 118/189/59 120/191/59
f 133/211/53 109/179/53 130/205/53
f 136/214/60 141/219/60 112/183/60
f 130/205/61 135/213/61 133/211/61
f 132/209/62 136/214/62 135/213/62
f 131/207/63 134/212/63 136/214/63
f 115/186/64 119/190/64 118/189/64
f 142/220/65 139/217/65 137/215/65
f 144/222/66 140/218/66 139/217/66
f 143/221/67 138/216/67 140/218/67
f 131/208/68 110/181/68 138/216/68
f 160/254/51 150/235/51 146/225/51
f 167/266/60 158/251/60 163/259/60
f 155/245/52 161/256/52 166/264/52
f 149/233/68 152/239/68 145/224/68
f 154/243/64 168/267/64 164/260/64
f 146/226/69 153/242/69 151/237/69
f 147/229/70 152/239/70 153/240/70
f 155/245/71 150/236/71 148/231/71
f 156/248/72 149/233/72 150/234/72
f 164/261/73 159/253/73 157/250/73
f 165/263/74 158/251/74 159/253/74
f 161/256/75 168/268/75 166/264/75
f 162/258/76 167/266/76 168/268/76
f 164/261/53 146/226/53 151/237/53
f 112/183/51 110/181/51 109/180/51
f 122/194/51 134/212/51 129/204/51
f 129/204/51 125/198/51 127/200/51
f 127/200/51 128/203/51 126/199/51
f 126/199/51 121/193/51 123/195/51
f 123/195/51 124/196/51 122/194/51
f 122/194/51 129/204/51 127/200/51
f 127/200/51 126/199/51 123/195/51
f 110/181/52 112/183/52 142/220/52
f 114/185/53 121/193/53 126/199/53
f 114/185/54 116/187/54 123/195/54
f 116/187/55 115/186/55 124/196/55
f 115/186/56 113/184/56 122/194/56
f 126/199/57 128/203/57 119/190/57
f 128/203/58 127/201/58 120/192/58
f 127/202/59 125/197/59 118/189/59
f 133/211/53 111/182/53 109/179/53
f 112/183/60 111/182/60 133/211/60
f 112/183/60 133/211/60 135/213/60
f 144/222/60 142/220/60 112/183/60
f 141/219/60 143/221/60 144/222/60
f 122/194/60 113/184/60 141/219/60
f 134/212/60 122/194/60 141/219/60
f 141/219/60 144/222/60 112/183/60
f 112/183/60 135/213/60 136/214/60
f 136/214/60 134/212/60 141/219/60
f 130/205/61 132/209/61 135/213/61
f 132/209/62 131/207/62 136/214/62
f 131/207/63 129/204/63 134/212/63
f 118/189/64 138/216/64 141/219/64
f 141/219/64 113/184/64 115/186/64
f 115/186/64 116/187/64 114/185/64
f 114/185/64 117/188/64 119/190/64
f 119/190/64 120/192/64 118/189/64
f 118/189/64 141/219/64 115/186/64
f 115/186/64 114/185/64 119/190/64
f 142/220/65 144/222/65 139/217/65
f 144/222/66 143/221/66 140/218/66
f 143/221/67 141/219/67 138/216/67
f 130/206/68 109/180/68 110/181/68
f 110/181/68 137/215/68 139/217/68
f 139/217/68 140/218/68 138/216/68
f 138/216/68 118/189/68 125/198/68
f 138/216/68 125/198/68 129/204/68
f 110/181/68 139/217/68 138/216/68
f 132/210/68 130/206/68 110/181/68
f 138/216/68 129/204/68 131/208/68
f 131/208/68 132/210/68 110/181/68
f 146/225/51 157/249/51 159/252/51
f 159/252/51 158/251/51 160/254/51
f 160/254/51 162/257/51 161/255/51
f 161/255/51 148/230/51 150/235/51
f 150/235/51 149/232/51 145/223/51
f 145/223/51 147/227/51 146/225/51
f 146/225/51 159/252/51 160/254/51
f 160/254/51 161/255/51 150/235/51
f 150/235/51 145/223/51 146/225/51
f 167/266/60 160/254/60 158/251/60
f 155/245/52 148/231/52 161/256/52
f 149/233/68 154/243/68 152/239/68
f 164/260/64 151/238/64 153/241/64
f 153/241/64 152/239/64 154/243/64
f 154/243/64 156/246/64 155/244/64
f 155/244/64 166/265/64 168/267/64
f 168/267/64 167/266/64 163/259/64
f 163/259/64 165/262/64 164/260/64
f 164/260/64 153/241/64 154/243/64
f 154/243/64 155/244/64 168/267/64
f 168/267/64 163/259/64 164/260/64
f 146/226/69 147/228/69 153/242/69
f 147/229/70 145/224/70 152/239/70
f 155/245/71 156/247/71 150/236/71
f 156/248/72 154/243/72 149/233/72
f 164/261/73 165/263/73 159/253/73
f 165/263/74 163/259/74 158/251/74
f 161/256/75 162/258/75 168/268/75
f 162/258/76 160/254/76 167/266/76
f 164/261/53 157/250/53 146/226/53
